<?xml version="1.0" encoding="UTF-8"?>
<!-- Generator: Adobe Illustrator 15.0.2, SVG Export Plug-In . SVG Version: 6.00 Build 0)  -->
<!DOCTYPE svg PUBLIC "-//W3C//DTD SVG 1.1//EN" "http://www.w3.org/Graphics/SVG/1.1/DTD/svg11.dtd">
<svg xmlns="http://www.w3.org/2000/svg" xmlns:xlink="http://www.w3.org/1999/xlink" version="1.1" id="Layer_1" x="0px" y="0px" width="512px" height="568.918px" viewBox="-0.329 0 512 568.918" enable-background="new -0.329 0 512 568.918" xml:space="preserve">
<g>
	<path d="M507.268,50.31L461.378,4.4C458.56,1.588,454.732,0,450.74,0l0,0c-3.992,0-7.82,1.594-10.639,4.406L172.532,272.484   c-1.441,1.447-2.586,3.179-3.338,5.084l-29.775,75.184c-2.202,5.566-0.896,11.896,3.323,16.146   c2.88,2.889,6.729,4.427,10.653,4.427c1.84,0,3.692-0.341,5.472-1.033l75.428-29.532c1.932-0.764,3.687-1.902,5.146-3.37   L507.268,71.555C513.139,65.699,513.139,56.182,507.268,50.31z M220.412,315.904l-40.317,15.794l15.908-40.171L450.751,36.296   l24.636,24.641L220.412,315.904z" fill="#000000"/>
	<path d="M386.919,265.958c-13.28,0-24.048,10.768-24.048,24.049v230.815H47.768V88.415h241.643   c13.28,0,24.048-10.768,24.048-24.048c0-13.281-10.768-24.049-24.048-24.049H23.72c-13.281,0-24.048,10.768-24.048,24.049V544.87   c0,13.281,10.768,24.049,24.048,24.049h363.2c13.281,0,24.049-10.768,24.049-24.049V290.012   C410.968,276.725,400.201,265.958,386.919,265.958z" fill="#000000"/>
</g>
</svg>
